RBDS001runT35_grf
version=1
nRows=15
nColumns=19
inDegrees=no
endheader
time	ground_force_r_vx	ground_force_r_vy	ground_force_r_vz	ground_force_r_px	ground_force_r_py	ground_force_r_pz	ground_force_r_mx	ground_force_r_my	ground_force_r_mz	ground_force_l_vx	ground_force_l_vy	ground_force_l_vz	ground_force_l_px	ground_force_l_py	ground_force_l_pz	ground_force_l_mx	ground_force_l_my	ground_force_l_mz
     22.49800000	      0.00000000	      0.00000000	      0.00000000	      0.00000000	      0.00000000	      0.00000000	      0.00000000	      0.00000000	      0.00000000	    142.47067574	   1226.03632614	    -10.34645314	      2.21326316	      0.00000000	      1.05123393	     -0.00000000	      8.53612492	      0.00000000
     22.49900000	      0.00000000	      0.00000000	      0.00000000	      0.00000000	      0.00000000	      0.00000000	      0.00000000	      0.00000000	      0.00000000	    146.52627429	   1213.85950117	    -11.54360588	      2.20974188	      0.00000000	      1.05131097	     -0.00000000	      8.50320945	      0.00000000
     22.50000000	      0.00000000	      0.00000000	      0.00000000	      0.00000000	      0.00000000	      0.00000000	      0.00000000	      0.00000000	      0.00000000	    150.58187285	   1201.68267619	    -12.74075863	      2.20622059	      0.00000000	      1.05138802	     -0.00000000	      8.47029397	      0.00000000
     22.50100000	      0.00000000	      0.00000000	      0.00000000	      0.00000000	      0.00000000	      0.00000000	      0.00000000	      0.00000000	      0.00000000	    154.23397297	   1188.69132067	    -14.00475962	      2.20267702	      0.00000000	      1.05146903	     -0.00000000	      8.42081388	      0.00000000
     22.50200000	      0.00000000	      0.00000000	      0.00000000	      0.00000000	      0.00000000	      0.00000000	      0.00000000	      0.00000000	      0.00000000	    157.88607308	   1175.69996514	    -15.26876062	      2.19913344	      0.00000000	      1.05155005	     -0.00000000	      8.37133378	      0.00000000
     22.50300000	      0.00000000	      0.00000000	      0.00000000	      0.00000000	      0.00000000	      0.00000000	      0.00000000	      0.00000000	      0.00000000	    161.53817320	   1162.70860962	    -16.53276162	      2.19558986	      0.00000000	      1.05163107	     -0.00000000	      8.32185368	      0.00000000
     22.50400000	      0.00000000	      0.00000000	      0.00000000	      0.00000000	      0.00000000	      0.00000000	      0.00000000	      0.00000000	      0.00000000	    164.88791876	   1149.19395721	    -17.81734713	      2.19203883	      0.00000000	      1.05171237	     -0.00000000	      8.26259795	      0.00000000
     22.50500000	      0.00000000	      0.00000000	      0.00000000	      0.00000000	      0.00000000	      0.00000000	      0.00000000	      0.00000000	      0.00000000	    168.08648703	   1135.41765637	    -19.11222490	      2.18848408	      0.00000000	      1.05179382	     -0.00000000	      8.19845439	      0.00000000
     22.50600000	      0.00000000	      0.00000000	      0.00000000	      0.00000000	      0.00000000	      0.00000000	      0.00000000	      0.00000000	      0.00000000	    171.28505531	   1121.64135553	    -20.40710268	      2.18492933	      0.00000000	      1.05187526	     -0.00000000	      8.13431083	      0.00000000
     22.50700000	      0.00000000	      0.00000000	      0.00000000	      0.00000000	      0.00000000	      0.00000000	      0.00000000	      0.00000000	      0.00000000	    174.31742274	   1107.61734101	    -21.70032008	      2.18137530	      0.00000000	      1.05195574	     -0.00000000	      8.06591747	      0.00000000
     22.50800000	      0.00000000	      0.00000000	      0.00000000	      0.00000000	      0.00000000	      0.00000000	      0.00000000	      0.00000000	      0.00000000	    177.01738849	   1093.09789914	    -22.99021675	      2.17782272	      0.00000000	      1.05203427	     -0.00000000	      7.98902452	      0.00000000
     22.50900000	      0.00000000	      0.00000000	      0.00000000	      0.00000000	      0.00000000	      0.00000000	      0.00000000	      0.00000000	      0.00000000	    179.71735423	   1078.57845728	    -24.28011342	      2.17427013	      0.00000000	      1.05211281	     -0.00000000	      7.91213158	      0.00000000
     22.51000000	      0.00000000	      0.00000000	      0.00000000	      0.00000000	      0.00000000	      0.00000000	      0.00000000	      0.00000000	      0.00000000	    182.41731997	   1064.05901541	    -25.57001008	      2.17071755	      0.00000000	      1.05219134	     -0.00000000	      7.83523863	      0.00000000
     22.51100000	      0.00000000	      0.00000000	      0.00000000	      0.00000000	      0.00000000	      0.00000000	      0.00000000	      0.00000000	      0.00000000	    184.58001143	   1048.85112788	    -26.82014570	      2.16718250	      0.00000000	      1.05226390	     -0.00000000	      7.74747133	      0.00000000
     22.51200000	      0.00000000	      0.00000000	      0.00000000	      0.00000000	      0.00000000	      0.00000000	      0.00000000	      0.00000000	      0.00000000	    186.74270288	   1033.64324034	    -28.07028131	      2.16364745	      0.00000000	      1.05233647	     -0.00000000	      7.65970402	      0.00000000
